<svg width="16" height="28" viewBox="0 0 16 28" fill="none" xmlns="http://www.w3.org/2000/svg">
<path d="M15.5 9.14467C15.5 13.9472 12.0909 14.693 12.0909 19.1689C12.0909 21.4795 9.96159 21.6742 8.34091 21.6742C6.94114 21.6742 3.85045 21.0932 3.85045 19.1674C3.85045 14.6938 0.5 13.9479 0.5 9.14467C0.5 4.64645 4.10341 1 8.05659 1C12.0111 1 15.5 4.64645 15.5 9.14467Z" fill="url(#paint0_linear_36_3)" stroke="white" stroke-width="0.5"/>
<path d="M10.8424 25.1355C10.8424 25.753 9.31925 27.0001 8.00129 27.0001C6.68334 27.0001 5.16016 25.753 5.16016 25.1355C5.16016 24.5179 6.68266 24.7625 8.00129 24.7625C9.31925 24.7625 10.8424 24.5179 10.8424 25.1355Z" fill="url(#paint1_linear_36_3)" stroke="white" stroke-width="0.5"/>
<path d="M11.2078 8.57232C11.1445 8.503 11.0694 8.448 10.9867 8.41048C10.9039 8.37295 10.8153 8.35364 10.7257 8.35364C10.6362 8.35364 10.5475 8.37295 10.4648 8.41048C10.3821 8.448 10.307 8.503 10.2437 8.57232L7.99846 11.0284L5.75324 8.57232C5.68993 8.50307 5.61478 8.44814 5.53207 8.41067C5.44936 8.37319 5.36072 8.3539 5.27119 8.3539C5.18167 8.3539 5.09302 8.37319 5.01031 8.41067C4.9276 8.44814 4.85245 8.50307 4.78915 8.57232C4.72584 8.64157 4.67563 8.72378 4.64137 8.81426C4.60711 8.90473 4.58948 9.0017 4.58948 9.09964C4.58948 9.19757 4.60711 9.29454 4.64137 9.38502C4.67563 9.47549 4.72584 9.5577 4.78915 9.62695L7.31665 12.3918V20.2874C7.31665 20.4852 7.38848 20.6749 7.51635 20.8148C7.64421 20.9546 7.81764 21.0332 7.99846 21.0332C8.17929 21.0332 8.35272 20.9546 8.48058 20.8148C8.60845 20.6749 8.68028 20.4852 8.68028 20.2874V12.3918L11.2078 9.62695C11.2712 9.55775 11.3214 9.47555 11.3557 9.38507C11.39 9.29458 11.4077 9.19759 11.4077 9.09964C11.4077 9.00168 11.39 8.90469 11.3557 8.81421C11.3214 8.72372 11.2712 8.64153 11.2078 8.57232Z" fill="white"/>
<path d="M12.6571 23.1975C12.6571 23.4664 12.5154 23.7242 12.263 23.9143C12.0106 24.1044 11.6683 24.2112 11.3114 24.2112H5.92839C5.57148 24.2112 5.22918 24.1044 4.9768 23.9143C4.72443 23.7242 4.58264 23.4664 4.58264 23.1975V20.1562H12.6571V23.1975Z" fill="#09010E"/>
<path d="M3.90561 24.762C3.73487 24.7613 3.57059 24.6906 3.44523 24.5638C3.31987 24.437 3.24257 24.2633 3.2286 24.0772C3.21464 23.891 3.26502 23.7059 3.3698 23.5585C3.47458 23.411 3.62613 23.3119 3.79448 23.2808L11.9763 21.7891C12.0646 21.7724 12.1551 21.7751 12.2425 21.797C12.3299 21.8189 12.4124 21.8595 12.4853 21.9166C12.5583 21.9736 12.6201 22.0459 12.6673 22.1292C12.7145 22.2126 12.7462 22.3053 12.7604 22.4021C12.7751 22.4987 12.7723 22.5975 12.7521 22.6929C12.7319 22.7883 12.6947 22.8784 12.6427 22.9581C12.5906 23.0377 12.5247 23.1054 12.4488 23.1572C12.3728 23.209 12.2882 23.2439 12.1999 23.2599L4.01811 24.7516C3.98097 24.7587 3.94332 24.7622 3.90561 24.762ZM3.90561 21.7786C3.73487 21.7779 3.57059 21.7072 3.44523 21.5804C3.31987 21.4536 3.24257 21.2799 3.2286 21.0938C3.21464 20.9076 3.26502 20.7225 3.3698 20.5751C3.47458 20.4276 3.62613 20.3285 3.79448 20.2974L11.9763 18.8057C12.0646 18.7891 12.1551 18.7919 12.2424 18.8138C12.3298 18.8358 12.4123 18.8764 12.4852 18.9334C12.5581 18.9904 12.6199 19.0627 12.6672 19.146C12.7144 19.2293 12.7461 19.322 12.7604 19.4188C12.7751 19.5153 12.7723 19.6141 12.7521 19.7095C12.7319 19.8049 12.6947 19.895 12.6427 19.9747C12.5906 20.0543 12.5247 20.122 12.4488 20.1738C12.3728 20.2256 12.2882 20.2605 12.1999 20.2765L4.01811 21.7682C3.98097 21.7753 3.94332 21.7788 3.90561 21.7786Z" fill="url(#paint2_linear_36_3)" stroke="white" stroke-width="0.5"/>
<defs>
<linearGradient id="paint0_linear_36_3" x1="1.89042" y1="-0.874449" x2="22.0121" y2="3.78917" gradientUnits="userSpaceOnUse">
<stop stop-color="#C54A92"/>
<stop offset="1" stop-color="#2E62EB"/>
</linearGradient>
<linearGradient id="paint1_linear_36_3" x1="5.68687" y1="24.5075" x2="7.47494" y2="28.2158" gradientUnits="userSpaceOnUse">
<stop stop-color="#C54A92"/>
<stop offset="1" stop-color="#2E62EB"/>
</linearGradient>
<linearGradient id="paint2_linear_36_3" x1="4.11093" y1="18.254" x2="9.8381" y2="25.8943" gradientUnits="userSpaceOnUse">
<stop stop-color="#C54A92"/>
<stop offset="1" stop-color="#2E62EB"/>
</linearGradient>
</defs>
</svg>
