<svg width="39" height="29" viewBox="0 0 39 29" fill="none" xmlns="http://www.w3.org/2000/svg">
<g filter="url(#filter0_dd_17_144)">
<path d="M24.8766 1H20.85C20.475 1 20.1141 1.14838 19.8375 1.41547L15.2297 5.86698C15.225 5.87193 15.2203 5.88182 15.2156 5.88677C14.4375 6.65836 14.4516 7.88995 15.1172 8.6566C15.7125 9.34411 16.9641 9.52712 17.7469 8.79014C17.7516 8.7852 17.7609 8.7852 17.7656 8.78025L21.5109 5.15969C21.8156 4.86787 22.2937 4.88765 22.5703 5.20915C22.8516 5.53065 22.8281 6.03021 22.5234 6.32697L21.3 7.5091L28.125 13.3554C28.2609 13.4741 28.3828 13.6027 28.4953 13.7363V4.16552L25.9359 1.46494C25.6594 1.16817 25.275 1 24.8766 1V1ZM30 4.17541V15.2498C30 16.1252 30.6703 16.8325 31.5 16.8325H34.5V4.17541H30ZM32.25 15.2498C31.8375 15.2498 31.5 14.8937 31.5 14.4584C31.5 14.0231 31.8375 13.667 32.25 13.667C32.6625 13.667 33 14.0231 33 14.4584C33 14.8937 32.6625 15.2498 32.25 15.2498ZM4.5 16.8276H7.5C8.32969 16.8276 9 16.1203 9 15.2448V4.17541H4.5V16.8276ZM6.75 13.667C7.1625 13.667 7.5 14.0231 7.5 14.4584C7.5 14.8937 7.1625 15.2498 6.75 15.2498C6.3375 15.2498 6 14.8937 6 14.4584C6 14.0182 6.3375 13.667 6.75 13.667ZM27.1828 14.587L20.1844 8.5923L18.7781 9.95248C17.3859 11.2929 15.2531 11.1643 14.0109 9.73485C12.75 8.28069 12.8484 6.03021 14.2172 4.70465L18.0516 1H14.1234C13.725 1 13.3453 1.16817 13.0641 1.46494L10.5 4.16552V15.2399H11.3578L15.6 19.2908C16.8844 20.3937 18.7734 20.186 19.8187 18.8308L19.8281 18.8209L20.6672 19.5875C21.4125 20.2305 22.5141 20.1069 23.1188 19.3204L24.5906 17.4112L24.8438 17.6289C25.4859 18.1779 26.4328 18.079 26.9531 17.3964L27.3984 16.8177C27.9234 16.1351 27.825 15.141 27.1828 14.587V14.587Z" fill="url(#paint0_linear_17_144)"/>
<path d="M24.8766 1H20.85C20.475 1 20.1141 1.14838 19.8375 1.41547L15.2297 5.86698C15.225 5.87193 15.2203 5.88182 15.2156 5.88677C14.4375 6.65836 14.4516 7.88995 15.1172 8.6566C15.7125 9.34411 16.9641 9.52712 17.7469 8.79014C17.7516 8.7852 17.7609 8.7852 17.7656 8.78025L21.5109 5.15969C21.8156 4.86787 22.2937 4.88765 22.5703 5.20915C22.8516 5.53065 22.8281 6.03021 22.5234 6.32697L21.3 7.5091L28.125 13.3554C28.2609 13.4741 28.3828 13.6027 28.4953 13.7363V4.16552L25.9359 1.46494C25.6594 1.16817 25.275 1 24.8766 1V1ZM30 4.17541V15.2498C30 16.1252 30.6703 16.8325 31.5 16.8325H34.5V4.17541H30ZM32.25 15.2498C31.8375 15.2498 31.5 14.8937 31.5 14.4584C31.5 14.0231 31.8375 13.667 32.25 13.667C32.6625 13.667 33 14.0231 33 14.4584C33 14.8937 32.6625 15.2498 32.25 15.2498ZM4.5 16.8276H7.5C8.32969 16.8276 9 16.1203 9 15.2448V4.17541H4.5V16.8276ZM6.75 13.667C7.1625 13.667 7.5 14.0231 7.5 14.4584C7.5 14.8937 7.1625 15.2498 6.75 15.2498C6.3375 15.2498 6 14.8937 6 14.4584C6 14.0182 6.3375 13.667 6.75 13.667ZM27.1828 14.587L20.1844 8.5923L18.7781 9.95248C17.3859 11.2929 15.2531 11.1643 14.0109 9.73485C12.75 8.28069 12.8484 6.03021 14.2172 4.70465L18.0516 1H14.1234C13.725 1 13.3453 1.16817 13.0641 1.46494L10.5 4.16552V15.2399H11.3578L15.6 19.2908C16.8844 20.3937 18.7734 20.186 19.8187 18.8308L19.8281 18.8209L20.6672 19.5875C21.4125 20.2305 22.5141 20.1069 23.1188 19.3204L24.5906 17.4112L24.8438 17.6289C25.4859 18.1779 26.4328 18.079 26.9531 17.3964L27.3984 16.8177C27.9234 16.1351 27.825 15.141 27.1828 14.587V14.587Z" stroke="white" stroke-width="0.5"/>
</g>
<defs>
<filter id="filter0_dd_17_144" x="0.25" y="0.75" width="38.5" height="27.5001" filterUnits="userSpaceOnUse" color-interpolation-filters="sRGB">
<feFlood flood-opacity="0" result="BackgroundImageFix"/>
<feColorMatrix in="SourceAlpha" type="matrix" values="0 0 0 0 0 0 0 0 0 0 0 0 0 0 0 0 0 0 127 0" result="hardAlpha"/>
<feOffset dy="4"/>
<feGaussianBlur stdDeviation="2"/>
<feComposite in2="hardAlpha" operator="out"/>
<feColorMatrix type="matrix" values="0 0 0 0 0 0 0 0 0 0 0 0 0 0 0 0 0 0 0.25 0"/>
<feBlend mode="normal" in2="BackgroundImageFix" result="effect1_dropShadow_17_144"/>
<feColorMatrix in="SourceAlpha" type="matrix" values="0 0 0 0 0 0 0 0 0 0 0 0 0 0 0 0 0 0 127 0" result="hardAlpha"/>
<feOffset dy="4"/>
<feGaussianBlur stdDeviation="2"/>
<feComposite in2="hardAlpha" operator="out"/>
<feColorMatrix type="matrix" values="0 0 0 0 0 0 0 0 0 0 0 0 0 0 0 0 0 0 0.25 0"/>
<feBlend mode="normal" in2="effect1_dropShadow_17_144" result="effect2_dropShadow_17_144"/>
<feBlend mode="normal" in="SourceGraphic" in2="effect2_dropShadow_17_144" result="shape"/>
</filter>
<linearGradient id="paint0_linear_17_144" x1="7.28083" y1="-0.722658" x2="41.0858" y2="16.3281" gradientUnits="userSpaceOnUse">
<stop stop-color="#C54A92"/>
<stop offset="1" stop-color="#2E62EB"/>
</linearGradient>
</defs>
</svg>
