<svg width="24" height="22" viewBox="0 0 24 22" fill="none" xmlns="http://www.w3.org/2000/svg">
<path fill-rule="evenodd" clip-rule="evenodd" d="M4.09859 1.95532C2.38729 1.95532 1 3.3426 1 5.05391V17.9014C1 19.6127 2.38729 21 4.09859 21H16.493C18.2043 21 19.5915 19.6127 19.5915 17.9014V5.05391C19.5915 3.34261 18.2043 1.95532 16.493 1.95532H4.09859ZM11.8599 16.9095C12.7341 16.9069 13.5647 16.514 14.1387 15.8315L19.5912 9.41436V5.28807C19.5912 2.74878 17.5518 2.14666 17.5518 2.14666C15.9907 3.63846 14.8396 4.95026 13.7132 6.23398C12.9984 7.04854 12.2936 7.85179 11.5002 8.68254L10.027 6.88633C8.91997 5.58509 7.00353 5.45917 5.74648 6.60508C4.48943 7.751 4.36779 9.73482 5.47479 11.0361L9.57521 15.8449C10.153 16.524 10.9857 16.9121 11.8599 16.9095Z" fill="url(#paint0_linear_35_11)"/>
<path d="M14.1387 15.8315L13.9482 15.6697L13.9474 15.6706L14.1387 15.8315ZM11.8599 16.9095L11.8606 17.1595L11.8599 16.9095ZM19.5912 9.41436L19.7817 9.57623L19.8412 9.50623V9.41436H19.5912ZM17.5518 2.14666L17.6225 1.9069L17.4837 1.8659L17.379 1.96592L17.5518 2.14666ZM13.7132 6.23398L13.5253 6.06909L13.7132 6.23398ZM11.5002 8.68254L11.3069 8.84108L11.486 9.05941L11.681 8.8552L11.5002 8.68254ZM10.027 6.88633L10.2203 6.72776L10.2174 6.72434L10.027 6.88633ZM5.74648 6.60508L5.57806 6.42033L5.74648 6.60508ZM5.47479 11.0361L5.28437 11.1981L5.28455 11.1983L5.47479 11.0361ZM9.57521 15.8449L9.76562 15.6829L9.76544 15.6827L9.57521 15.8449ZM1.25 5.05391C1.25 3.48068 2.52536 2.20532 4.09859 2.20532V1.70532C2.24922 1.70532 0.75 3.20453 0.75 5.05391H1.25ZM1.25 17.9014V5.05391H0.75V17.9014H1.25ZM4.09859 20.75C2.52536 20.75 1.25 19.4746 1.25 17.9014H0.75C0.75 19.7508 2.24921 21.25 4.09859 21.25V20.75ZM16.493 20.75H4.09859V21.25H16.493V20.75ZM19.3415 17.9014C19.3415 19.4746 18.0662 20.75 16.493 20.75V21.25C18.3423 21.25 19.8415 19.7508 19.8415 17.9014H19.3415ZM19.3415 5.05391V17.9014H19.8415V5.05391H19.3415ZM16.493 2.20532C18.0662 2.20532 19.3415 3.48068 19.3415 5.05391H19.8415C19.8415 3.20454 18.3423 1.70532 16.493 1.70532V2.20532ZM4.09859 2.20532H16.493V1.70532H4.09859V2.20532ZM13.9474 15.6706C13.4196 16.2981 12.6581 16.6572 11.8591 16.6595L11.8606 17.1595C12.81 17.1567 13.7098 16.7299 14.33 15.9924L13.9474 15.6706ZM19.4007 9.25248L13.9482 15.6697L14.3292 15.9934L19.7817 9.57623L19.4007 9.25248ZM19.3412 5.28807V9.41436H19.8412V5.28807H19.3412ZM17.5518 2.14666C17.481 2.38643 17.4808 2.3864 17.4807 2.38636C17.4807 2.38635 17.4806 2.38632 17.4805 2.3863C17.4804 2.38627 17.4803 2.38624 17.4803 2.38622C17.4802 2.38619 17.4802 2.38619 17.4803 2.38623C17.4805 2.3863 17.4813 2.38652 17.4824 2.3869C17.4848 2.38764 17.489 2.38899 17.4949 2.39097C17.5067 2.39495 17.5253 2.40148 17.5497 2.41087C17.5987 2.42967 17.6707 2.45983 17.7581 2.50378C17.9334 2.59188 18.168 2.73415 18.4025 2.94932C18.8659 3.37468 19.3412 4.0952 19.3412 5.28807H19.8412C19.8412 3.94165 19.2968 3.09147 18.7405 2.58095C18.4651 2.32818 18.1899 2.16121 17.9827 2.05706C17.879 2.00489 17.7916 1.96817 17.729 1.94412C17.6977 1.93209 17.6725 1.9232 17.6544 1.91712C17.6454 1.91407 17.6381 1.91173 17.6328 1.91004C17.6301 1.9092 17.6279 1.90852 17.6262 1.90799C17.6253 1.90773 17.6246 1.90751 17.624 1.90733C17.6237 1.90724 17.6234 1.90715 17.6232 1.90708C17.6231 1.90705 17.6229 1.907 17.6228 1.90698C17.6227 1.90694 17.6225 1.9069 17.5518 2.14666ZM13.9011 6.39887C15.0275 5.11516 16.1722 3.81082 17.7245 2.3274L17.379 1.96592C15.8092 3.46609 14.6517 4.78536 13.5253 6.06909L13.9011 6.39887ZM11.681 8.8552C12.4785 8.02007 13.1867 7.21297 13.9011 6.39887L13.5253 6.06909C12.8101 6.88411 12.1086 7.68351 11.3194 8.50987L11.681 8.8552ZM9.83367 7.04487L11.3069 8.84108L11.6935 8.52399L10.2203 6.72779L9.83367 7.04487ZM5.9149 6.78984C7.06663 5.73993 8.82049 5.85397 9.83655 7.04832L10.2174 6.72434C9.01945 5.3162 6.94043 5.1784 5.57806 6.42033L5.9149 6.78984ZM5.6652 10.8741C4.64488 9.6747 4.75815 7.84432 5.9149 6.78984L5.57806 6.42033C4.22071 7.65767 4.0907 9.79493 5.28437 11.1981L5.6652 10.8741ZM9.76544 15.6827L5.66502 10.8739L5.28455 11.1983L9.38497 16.0071L9.76544 15.6827ZM11.8591 16.6595C11.0602 16.6618 10.2968 16.3073 9.76562 15.6829L9.38479 16.0069C10.0091 16.7408 10.9112 17.1623 11.8606 17.1595L11.8591 16.6595Z" fill="white"/>
<path fill-rule="evenodd" clip-rule="evenodd" d="M22.3476 1.46684C23.1393 2.15558 23.2223 3.35522 22.533 4.1463L12.8964 14.6891C12.5367 15.102 12.0161 15.3396 11.4683 15.3412C10.9205 15.3427 10.3986 15.108 10.0366 14.6972L6.3301 10.3389C5.63638 9.55173 5.7126 8.35163 6.50037 7.65842C7.28813 6.96521 8.48911 7.04138 9.18284 7.82855L11.4548 10.5591L19.6661 1.65214C20.3554 0.861055 21.5559 0.778094 22.3476 1.46684Z" fill="url(#paint1_linear_35_11)" stroke="white" stroke-width="0.5"/>
<defs>
<linearGradient id="paint0_linear_35_11" x1="2.72333" y1="0.228616" x2="26.6735" y2="7.69734" gradientUnits="userSpaceOnUse">
<stop stop-color="#C54A92"/>
<stop offset="1" stop-color="#2E62EB"/>
</linearGradient>
<linearGradient id="paint1_linear_35_11" x1="7.37201" y1="1.9349" x2="25.5561" y2="8.91069" gradientUnits="userSpaceOnUse">
<stop stop-color="#C54A92"/>
<stop offset="1" stop-color="#2E62EB"/>
</linearGradient>
</defs>
</svg>
