<svg width="27" height="27" viewBox="0 0 27 27" fill="none" xmlns="http://www.w3.org/2000/svg">
<path d="M15.6164 13.3111C15.4076 14.2291 15.9922 15.1888 16.9525 15.3975C17.9129 15.6061 18.8732 15.0219 19.082 14.1039L21.629 3.17158C21.8378 2.2536 21.2532 1.29389 20.2929 1.08526C19.3325 0.876622 18.3722 1.4608 18.1634 2.37878L15.6164 13.3111Z" fill="url(#paint0_linear_9004_231)" stroke="white" stroke-width="0.5"/>
<path d="M18.9152 14.3952C18.9152 14.3952 15.2825 10.8067 8.85237 12.601C8.85237 12.601 5.0527 13.2686 5.26147 15.188C5.26147 15.188 5.13621 19.9448 6.76464 22.7822C8.77729 26.2253 16.0394 26.8128 19.6566 22.7822C20.4669 21.8793 20.3901 21.0679 20.8257 19.6398C20.8257 18.1424 20.8257 14.6484 18.9152 14.3952Z" fill="url(#paint1_linear_9004_231)" stroke="white" stroke-width="0.5"/>
<path d="M12.4418 13.9364C12.6088 14.8961 13.5691 15.4803 14.5295 15.3134C15.4898 15.1465 16.1579 14.2285 15.9909 13.2688L13.9032 2.25299C13.7362 1.29328 12.7758 0.709106 11.8154 0.876012C10.8551 1.04292 10.187 1.9609 10.3958 2.92061L12.4418 13.9364Z" fill="url(#paint2_linear_9004_231)"/>
<path d="M12.4418 13.9364C12.6088 14.8961 13.5691 15.4803 14.5295 15.3134C15.4898 15.1465 16.1579 14.2285 15.9909 13.2688L13.9032 2.25299C13.7362 1.29328 12.7758 0.709106 11.8154 0.876012C10.8551 1.04292 10.187 1.9609 10.3958 2.92061L12.4418 13.9364Z" stroke="white" stroke-width="0.5"/>
<path d="M5.054 13.3947C4.92874 12.435 5.63857 11.5587 6.64068 11.4335H6.68243C7.64279 11.3501 8.56139 12.0177 8.6449 13.0192L8.93718 15.7314C9.06244 16.6911 8.35262 17.5673 7.35051 17.6925H7.30875C6.30664 17.776 5.42979 17.1084 5.34628 16.1069L5.054 13.3947Z" fill="url(#paint3_linear_9004_231)"/>
<path d="M5.054 13.3947C4.92874 12.435 5.63857 11.5587 6.64068 11.4335H6.68243C7.64279 11.3501 8.56139 12.0177 8.6449 13.0192L8.93718 15.7314C9.06244 16.6911 8.35262 17.5673 7.35051 17.6925H7.30875C6.30664 17.776 5.42979 17.1084 5.34628 16.1069L5.054 13.3947Z" stroke="white" stroke-width="0.5"/>
<path d="M8.43254 11.4335C8.30728 10.4738 9.01711 9.59754 10.0192 9.47236H10.061C11.0631 9.38891 11.9399 10.0565 12.0234 11.058L12.3157 13.7702C12.441 14.7299 11.7312 15.6062 10.729 15.7313H10.6873C9.68518 15.8148 8.80833 15.1472 8.72482 14.1457L8.43254 11.4335Z" fill="url(#paint4_linear_9004_231)"/>
<path d="M8.43254 11.4335C8.30728 10.4738 9.01711 9.59754 10.0192 9.47236H10.061C11.0631 9.38891 11.9399 10.0565 12.0234 11.058L12.3157 13.7702C12.441 14.7299 11.7312 15.6062 10.729 15.7313H10.6873C9.68518 15.8148 8.80833 15.1472 8.72482 14.1457L8.43254 11.4335Z" stroke="white" stroke-width="0.5"/>
<path d="M6.75542 17.109C7.75753 16.9838 8.4256 16.1493 8.34209 15.1479L8.04981 12.4356C8.00806 12.1853 7.88279 11.8932 7.75753 11.6428C8.38385 11.9349 8.59262 12.4356 8.67613 13.0198L8.96841 15.732C9.09368 16.6917 8.38385 17.568 7.42349 17.6515C6.71366 17.7349 6.04559 17.3594 5.71155 16.8169C5.96208 17.0256 6.33787 17.1507 6.75542 17.109Z" fill="white"/>
<path d="M10.0903 15.1478C11.0924 15.0226 11.8022 14.188 11.677 13.2283L11.3847 10.5161C11.3429 10.2658 11.2177 9.9319 11.0924 9.72327C11.677 10.0571 11.9275 10.5578 12.011 11.142L12.3033 13.8542C12.4286 14.8139 11.7187 15.6485 10.7166 15.7737H10.6749C9.965 15.8571 9.29693 15.4816 8.96289 14.9391C9.29693 15.106 9.67272 15.1895 10.0903 15.1478Z" fill="white"/>
<path d="M17.3216 17.0251C15.3174 16.0654 10.7662 17.7344 11.6848 21.9071C11.6848 17.5675 15.6097 16.8164 17.3216 17.0251Z" fill="white"/>
<path d="M16.5649 12.7272C15.1035 11.8509 14.853 13.2279 12.3895 13.3114C11.3038 13.3531 10.8445 15.5646 12.473 16.3574C14.7277 17.484 14.8947 15.8984 15.4793 16.5243C16.0639 17.1919 16.6067 17.3171 17.1077 18.0682C17.4835 18.6106 20.2811 17.7761 20.5734 16.6495C21.1162 14.438 18.8197 14.1042 16.5649 12.7272Z" fill="white"/>
<path d="M16.7427 13.1024C15.2396 12.2262 14.9473 13.6031 12.4003 13.6866C11.2729 13.7283 10.7718 16.0233 12.4838 16.8578C14.822 18.0262 15.0308 16.3571 15.5736 17.0247C16.1999 17.6923 16.7427 17.8593 17.2855 18.6521C17.6613 19.2362 16.6592 21.406 16.6592 21.406C16.6592 21.406 19.5403 23.4506 20.1249 22.2823C21.2105 20.1125 20.9182 18.4434 20.8764 17.1916C20.7929 14.229 19.1227 14.5211 16.7427 13.1024Z" fill="url(#paint5_linear_9004_231)"/>
<path d="M16.7427 13.1024C15.2396 12.2262 14.9473 13.6031 12.4003 13.6866C11.2729 13.7283 10.7718 16.0233 12.4838 16.8578C14.822 18.0262 15.0308 16.3571 15.5736 17.0247C16.1999 17.6923 16.7427 17.8593 17.2855 18.6521C17.6613 19.2362 16.6592 21.406 16.6592 21.406C16.6592 21.406 19.5403 23.4506 20.1249 22.2823C21.2105 20.1125 20.9182 18.4434 20.8764 17.1916C20.7929 14.229 19.1227 14.5211 16.7427 13.1024Z" stroke="white" stroke-width="0.5"/>
<defs>
<linearGradient id="paint0_linear_9004_231" x1="16.1393" y1="-0.262335" x2="24.6027" y2="0.882639" gradientUnits="userSpaceOnUse">
<stop stop-color="#C54A92"/>
<stop offset="1" stop-color="#2E62EB"/>
</linearGradient>
<linearGradient id="paint1_linear_9004_231" x1="6.73892" y1="10.8501" x2="26.643" y2="18.2513" gradientUnits="userSpaceOnUse">
<stop stop-color="#C54A92"/>
<stop offset="1" stop-color="#2E62EB"/>
</linearGradient>
<linearGradient id="paint2_linear_9004_231" x1="10.882" y1="-0.466469" x2="18.7586" y2="0.515931" gradientUnits="userSpaceOnUse">
<stop stop-color="#C54A92"/>
<stop offset="1" stop-color="#2E62EB"/>
</linearGradient>
<linearGradient id="paint3_linear_9004_231" x1="5.40228" y1="10.8578" x2="10.7206" y2="11.9172" gradientUnits="userSpaceOnUse">
<stop stop-color="#C54A92"/>
<stop offset="1" stop-color="#2E62EB"/>
</linearGradient>
<linearGradient id="paint4_linear_9004_231" x1="8.78082" y1="8.89658" x2="14.0992" y2="9.95602" gradientUnits="userSpaceOnUse">
<stop stop-color="#C54A92"/>
<stop offset="1" stop-color="#2E62EB"/>
</linearGradient>
<linearGradient id="paint5_linear_9004_231" x1="12.2588" y1="11.9205" x2="24.5951" y2="15.7573" gradientUnits="userSpaceOnUse">
<stop stop-color="#C54A92"/>
<stop offset="1" stop-color="#2E62EB"/>
</linearGradient>
</defs>
</svg>
